<svg width="34" height="33" viewBox="0 0 34 33" fill="none" xmlns="http://www.w3.org/2000/svg">
<path id="Icon" d="M1.72001 13.1539C5.67682 21.5232 12.7175 28.1773 21.4709 31.7846L22.8741 32.3918C26.0843 33.7808 29.8581 32.7255 31.8161 29.8912L33.6498 27.2369C34.2459 26.374 34.0644 25.2117 33.2316 24.5592L27.013 19.6871C26.0996 18.9714 24.7565 19.1381 24.0578 20.0538L22.134 22.5748C17.1977 20.21 13.19 16.3179 10.755 11.524L13.3508 9.6557C14.2937 8.97711 14.4653 7.67273 13.7285 6.78568L8.71149 0.746242C8.03975 -0.0624019 6.84324 -0.23879 5.95466 0.339837L3.20273 2.13184C0.266002 4.04419 -0.814628 7.73939 0.648697 10.8653L1.7184 13.1504L1.72001 13.1539Z" fill="#203239"/>
</svg>
